<?xml version="1.0" standalone="no"?>
<svg viewBox="0 0 200 200" xmlns="http://www.w3.org/2000/svg">
  <path fill="#0F62FE" d="M47.2,-70.8C62.2,-63.8,76.1,-52.5,81.2,-38C86.3,-23.6,82.5,-6.1,77.9,9.7C73.3,25.5,67.7,39.7,59.1,53.1C50.4,66.5,38.7,79,23.9,84.9C9.2,90.8,-8.5,89.9,-22.9,83.3C-37.3,76.6,-48.4,64.1,-58.5,51.3C-68.6,38.6,-77.6,25.5,-79.5,11.5C-81.3,-2.5,-76,-17.4,-68.9,-30.8C-61.8,-44.3,-52.8,-56.2,-41,-64.7C-29.2,-73.1,-14.6,-78.1,0.8,-79.3C16.1,-80.5,32.2,-77.8,47.2,-70.8Z" transform="translate(100 100)" />
</svg>
